<svg width="674" height="620" viewBox="0 0 674 620" fill="none" xmlns="http://www.w3.org/2000/svg">
<path d="M158 1C114.5 4.33333 24.8997 19.8 14.4997 55C4.09974 90.2 112.166 106.667 167.5 110.5H513C551.667 108.833 636.8 117.9 668 167.5C699.2 217.1 577.667 235.833 513 239H158C92.333 243.5 -28.3005 266.8 14.4997 324C39.4996 333.833 103.2 353.5 158 353.5C212.8 353.5 417.5 353.5 513 353.5C576.667 353.5 696.8 367.5 668 423.5C639.2 479.5 552.667 486.833 513 483.5H158C86.833 485.667 -41.5005 508.3 14.4997 581.5C34.6663 594.5 91.5995 620.2 158 619" stroke="black"/>
</svg>
